<?xml version="1.0" encoding="utf-8"?>
<svg xmlns="http://www.w3.org/2000/svg" xmlns:xlink="http://www.w3.org/1999/xlink" style="margin: auto; background: rgba(0, 0, 0, 0) none repeat scroll 0% 0%; display: block; shape-rendering: auto;" width="200px" height="200px" viewBox="0 0 100 100" preserveAspectRatio="xMidYMid">
<g transform="rotate(0 50 50)">
  <rect x="47" y="24.5" rx="1.26" ry="1.26" width="6" height="21" fill="#008ce3">
    <animate attributeName="opacity" values="1;0" keyTimes="0;1" dur="2.564102564102564s" begin="-2.3076923076923075s" repeatCount="indefinite"></animate>
  </rect>
</g><g transform="rotate(36 50 50)">
  <rect x="47" y="24.5" rx="1.26" ry="1.26" width="6" height="21" fill="#008ce3">
    <animate attributeName="opacity" values="1;0" keyTimes="0;1" dur="2.564102564102564s" begin="-2.051282051282051s" repeatCount="indefinite"></animate>
  </rect>
</g><g transform="rotate(72 50 50)">
  <rect x="47" y="24.5" rx="1.26" ry="1.26" width="6" height="21" fill="#008ce3">
    <animate attributeName="opacity" values="1;0" keyTimes="0;1" dur="2.564102564102564s" begin="-1.7948717948717947s" repeatCount="indefinite"></animate>
  </rect>
</g><g transform="rotate(108 50 50)">
  <rect x="47" y="24.5" rx="1.26" ry="1.26" width="6" height="21" fill="#008ce3">
    <animate attributeName="opacity" values="1;0" keyTimes="0;1" dur="2.564102564102564s" begin="-1.5384615384615383s" repeatCount="indefinite"></animate>
  </rect>
</g><g transform="rotate(144 50 50)">
  <rect x="47" y="24.5" rx="1.26" ry="1.26" width="6" height="21" fill="#008ce3">
    <animate attributeName="opacity" values="1;0" keyTimes="0;1" dur="2.564102564102564s" begin="-1.282051282051282s" repeatCount="indefinite"></animate>
  </rect>
</g><g transform="rotate(180 50 50)">
  <rect x="47" y="24.5" rx="1.26" ry="1.26" width="6" height="21" fill="#008ce3">
    <animate attributeName="opacity" values="1;0" keyTimes="0;1" dur="2.564102564102564s" begin="-1.0256410256410255s" repeatCount="indefinite"></animate>
  </rect>
</g><g transform="rotate(216 50 50)">
  <rect x="47" y="24.5" rx="1.26" ry="1.26" width="6" height="21" fill="#008ce3">
    <animate attributeName="opacity" values="1;0" keyTimes="0;1" dur="2.564102564102564s" begin="-0.7692307692307692s" repeatCount="indefinite"></animate>
  </rect>
</g><g transform="rotate(252 50 50)">
  <rect x="47" y="24.5" rx="1.26" ry="1.26" width="6" height="21" fill="#008ce3">
    <animate attributeName="opacity" values="1;0" keyTimes="0;1" dur="2.564102564102564s" begin="-0.5128205128205128s" repeatCount="indefinite"></animate>
  </rect>
</g><g transform="rotate(288 50 50)">
  <rect x="47" y="24.5" rx="1.26" ry="1.26" width="6" height="21" fill="#008ce3">
    <animate attributeName="opacity" values="1;0" keyTimes="0;1" dur="2.564102564102564s" begin="-0.2564102564102564s" repeatCount="indefinite"></animate>
  </rect>
</g><g transform="rotate(324 50 50)">
  <rect x="47" y="24.5" rx="1.26" ry="1.26" width="6" height="21" fill="#008ce3">
    <animate attributeName="opacity" values="1;0" keyTimes="0;1" dur="2.564102564102564s" begin="0s" repeatCount="indefinite"></animate>
  </rect>
</g>
<!-- [ldio] generated by https://loading.io/ --></svg>